<svg xmlns="http://www.w3.org/2000/svg" viewBox="0 0 96 96" width="96" height="96"><defs><linearGradient id="g" x1="0" y1="0" x2="1" y2="1"><stop offset="0" stop-color="#C026D3"/><stop offset="1" stop-color="#701A75"/></linearGradient></defs><rect width="96" height="96" rx="26" fill="url(#g)"/><circle cx="74" cy="20" r="24" fill="#FFFFFF" fill-opacity="0.08"/><g transform="translate(24 24) scale(2)" fill="#FFFFFF"><path d="M6.50488 2H17.5049C17.8196 2 18.116 2.14819 18.3049 2.4L21.0049 6V21C21.0049 21.5523 20.5572 22 20.0049 22H4.00488C3.4526 22 3.00488 21.5523 3.00488 21V6L5.70488 2.4C5.89374 2.14819 6.19013 2 6.50488 2ZM18.5049 6L17.0049 4H7.00488L5.50488 6H18.5049ZM9.00488 10H7.00488V12C7.00488 14.7614 9.24346 17 12.0049 17C14.7663 17 17.0049 14.7614 17.0049 12V10H15.0049V12C15.0049 13.6569 13.6617 15 12.0049 15C10.348 15 9.00488 13.6569 9.00488 12V10Z"/></g></svg>